<svg width="42" height="42" viewBox="0 0 42 42" fill="none" xmlns="http://www.w3.org/2000/svg">
<path d="M21 0C32.5983 0 42 9.4017 42 21C42 32.5983 32.5983 42 21 42C9.4017 42 0 32.5983 0 21C0 9.4017 9.4017 0 21 0ZM21 4.2C16.5444 4.2 12.2712 5.97 9.12061 9.12061C5.97 12.2712 4.2 16.5444 4.2 21C4.2 25.4556 5.97 29.7288 9.12061 32.8794C12.2712 36.03 16.5444 37.8 21 37.8C25.4556 37.8 29.7288 36.03 32.8794 32.8794C36.03 29.7288 37.8 25.4556 37.8 21C37.8 16.5444 36.03 12.2712 32.8794 9.12061C29.7288 5.97 25.4556 4.2 21 4.2ZM20.979 16.8C22.1508 16.8 23.1 17.7492 23.1 18.921V29.6814C23.5003 29.9126 23.8132 30.2693 23.9901 30.6964C24.167 31.1235 24.198 31.597 24.0784 32.0435C23.9587 32.49 23.6951 32.8846 23.3283 33.166C22.9616 33.4474 22.5123 33.6 22.05 33.6H21.021C20.7425 33.6 20.4667 33.5451 20.2093 33.4385C19.952 33.332 19.7182 33.1757 19.5212 32.9788C19.3243 32.7818 19.168 32.548 19.0615 32.2907C18.9549 32.0333 18.9 31.7575 18.9 31.479V21C18.343 21 17.8089 20.7787 17.4151 20.3849C17.0212 19.9911 16.8 19.457 16.8 18.9C16.8 18.343 17.0212 17.8089 17.4151 17.4151C17.8089 17.0212 18.343 16.8 18.9 16.8H20.979ZM21 10.5C21.557 10.5 22.0911 10.7212 22.4849 11.1151C22.8787 11.5089 23.1 12.043 23.1 12.6C23.1 13.157 22.8787 13.6911 22.4849 14.0849C22.0911 14.4787 21.557 14.7 21 14.7C20.443 14.7 19.9089 14.4787 19.5151 14.0849C19.1212 13.6911 18.9 13.157 18.9 12.6C18.9 12.043 19.1212 11.5089 19.5151 11.1151C19.9089 10.7212 20.443 10.5 21 10.5Z" fill="#DF2121"/>
</svg>
