<svg width="28" height="21" viewBox="0 0 28 21" fill="none" xmlns="http://www.w3.org/2000/svg">
<g clip-path="url(#clip0_1373_2043)">
<g clip-path="url(#clip1_1373_2043)">
<g clip-path="url(#clip2_1373_2043)">
<path d="M28 10.7998C28 5.27696 23.5228 0.799805 18 0.799805C12.4772 0.799805 8 5.27696 8 10.7998C8 16.3227 12.4772 20.7998 18 20.7998C23.5228 20.7998 28 16.3227 28 10.7998Z" fill="white" fill-opacity="0.25"/>
<path d="M14.3543 16.6331H21.646C21.9336 16.6331 22.1668 16.3222 22.1668 15.9387V8.99424C22.1668 8.61071 21.9336 8.2998 21.646 8.2998H14.3543C14.0667 8.2998 13.8335 8.61072 13.8335 8.99426V15.9387C13.8335 16.3222 14.0667 16.6331 14.3543 16.6331Z" stroke="#FCE300" stroke-width="2" stroke-linecap="round" stroke-linejoin="round"/>
<path d="M19.5386 7.29721H16.4617V9.29721H19.5386V7.29721ZM17.3335 8.169V6.63054H15.3335V8.169H17.3335ZM18.6668 6.63054V8.169H20.6668V6.63054H18.6668ZM18.0002 5.96387C18.3684 5.96387 18.6668 6.26235 18.6668 6.63054H20.6668C20.6668 5.15778 19.4729 3.96387 18.0002 3.96387V5.96387ZM17.3335 6.63054C17.3335 6.26235 17.632 5.96387 18.0002 5.96387V3.96387C16.5274 3.96387 15.3335 5.15778 15.3335 6.63054H17.3335ZM16.4617 7.29721C16.9432 7.29721 17.3335 7.68753 17.3335 8.169H15.3335C15.3335 8.79209 15.8386 9.29721 16.4617 9.29721V7.29721ZM19.5386 9.29721C20.1617 9.29721 20.6668 8.7921 20.6668 8.169H18.6668C18.6668 7.68752 19.0572 7.29721 19.5386 7.29721V9.29721Z" fill="#FCE300"/>
</g>
</g>
</g>
<defs>
<clipPath id="clip0_1373_2043">
<rect width="20" height="20" fill="white" transform="translate(8 0.799805)"/>
</clipPath>
<clipPath id="clip1_1373_2043">
<rect width="20" height="20" fill="white" transform="translate(8 0.799805)"/>
</clipPath>
<clipPath id="clip2_1373_2043">
<rect width="20" height="20" fill="white" transform="translate(8 0.799805)"/>
</clipPath>
</defs>
</svg>
