<svg width="17" height="18" viewBox="0 0 17 18" fill="none" xmlns="http://www.w3.org/2000/svg">
<g clip-path="url(#clip0_1382_945)">
<path fill-rule="evenodd" clip-rule="evenodd" d="M3.76562 8.40056H5.84725V6.83887H3.76562V8.40056Z" fill="#767676"/>
<path fill-rule="evenodd" clip-rule="evenodd" d="M3.76562 11.0012H5.84725V9.44043H3.76562V11.0012Z" fill="#767676"/>
<path fill-rule="evenodd" clip-rule="evenodd" d="M3.76562 13.6027H5.84725V12.042H3.76562V13.6027Z" fill="#767676"/>
<path fill-rule="evenodd" clip-rule="evenodd" d="M7.4082 13.6027H9.48982V12.042H7.4082V13.6027Z" fill="#767676"/>
<path fill-rule="evenodd" clip-rule="evenodd" d="M7.4082 11.0012H9.48982V9.44043H7.4082V11.0012Z" fill="#767676"/>
<path fill-rule="evenodd" clip-rule="evenodd" d="M7.4082 8.40056H9.48982V6.83887H7.4082V8.40056Z" fill="#767676"/>
<path fill-rule="evenodd" clip-rule="evenodd" d="M11.0498 13.6027H13.1314V12.042H11.0498V13.6027Z" fill="#767676"/>
<path fill-rule="evenodd" clip-rule="evenodd" d="M11.0498 11.0012H13.1314V9.44043H11.0498V11.0012Z" fill="#767676"/>
<path fill-rule="evenodd" clip-rule="evenodd" d="M11.0498 8.40056H13.1314V6.83887H11.0498V8.40056Z" fill="#767676"/>
<path fill-rule="evenodd" clip-rule="evenodd" d="M15.9611 15.4039C15.9611 15.6185 15.7868 15.7937 15.5723 15.7937H1.32418C1.10965 15.7937 0.935397 15.6185 0.935397 15.4039V3.90629C0.935397 3.69176 1.10965 3.51657 1.32418 3.51657H3.63158V4.89838C3.63158 5.15413 3.83861 5.36024 4.09437 5.36024C4.35011 5.36024 4.55716 5.15413 4.55716 4.89838V3.51657H7.98593V4.89838C7.98593 5.15413 8.19297 5.36024 8.44778 5.36024C8.70354 5.36024 8.91151 5.15413 8.91151 4.89838V3.51657H12.3403V4.89838C12.3403 5.15413 12.5464 5.36024 12.8021 5.36024C13.0579 5.36024 13.2649 5.15413 13.2649 4.89838V3.51657H15.5723C15.7868 3.51657 15.9611 3.69176 15.9611 3.90629V15.4039ZM15.5723 2.59201H13.2649V1.51748C13.2649 1.26172 13.0579 1.05469 12.8021 1.05469C12.5464 1.05469 12.3403 1.26172 12.3403 1.51748V2.59201H8.91151V1.51748C8.91151 1.26172 8.70353 1.05469 8.44777 1.05469C8.19296 1.05469 7.98592 1.26172 7.98592 1.51748V2.59201H4.55715V1.51748C4.55715 1.26172 4.3501 1.05469 4.09436 1.05469C3.8386 1.05469 3.63157 1.26172 3.63157 1.51748V2.59201H1.32417C0.600004 2.59201 0.0107422 3.18128 0.0107422 3.90638V15.4041C0.0107422 16.1291 0.600004 16.7184 1.32417 16.7184H15.5723C16.2965 16.7184 16.8857 16.1291 16.8857 15.4041V3.90638C16.8857 3.18128 16.2965 2.59201 15.5723 2.59201Z" fill="#767676"/>
</g>
<defs>
<clipPath id="clip0_1382_945">
<rect width="16.875" height="18" fill="white" transform="translate(0.0107422)"/>
</clipPath>
</defs>
</svg>
