<svg width="18" height="18" viewBox="0 0 18 18" fill="none" xmlns="http://www.w3.org/2000/svg">
<g clip-path="url(#clip0_1382_931)">
<g clip-path="url(#clip1_1382_931)">
<path fill-rule="evenodd" clip-rule="evenodd" d="M9.00558 18C13.9314 18 18.001 13.9212 18.001 8.9954C18.001 4.06956 13.9314 0 8.99638 0C4.07054 0 0.000976562 4.06956 0.000976562 8.9954C0.000976562 13.9212 4.07975 18 9.00558 18ZM9.42889 4.43769V1.28883C10.3588 1.54664 11.2151 2.64229 11.8044 4.1891C11.0862 4.3364 10.2944 4.41927 9.42889 4.43769ZM6.19726 4.1891C6.91543 4.3364 7.70724 4.41927 8.57271 4.43769V1.28883C7.64279 1.54664 6.78653 2.64229 6.19726 4.1891ZM5.3413 3.98633C4.71521 3.80217 4.15358 3.572 3.6748 3.28658C4.55869 2.46714 5.63593 1.84105 6.83287 1.50039C6.25282 2.09886 5.73721 2.94591 5.3413 3.98633ZM11.1691 1.50039C11.7491 2.09886 12.2648 2.94591 12.6607 3.98633C13.2868 3.80217 13.8484 3.572 14.3272 3.28658C13.4433 2.46714 12.3661 1.84105 11.1691 1.50039ZM16.7859 8.55319H13.4988C13.4621 7.16291 13.2596 5.88312 12.928 4.76905C13.6922 4.54808 14.3643 4.25346 14.9168 3.90358C16.0032 5.16497 16.6846 6.78543 16.7859 8.55319ZM1.21634 8.55319H4.50329C4.54013 7.16291 4.74268 5.88312 5.07414 4.76905C4.30994 4.54808 3.62862 4.25346 3.08539 3.90358C1.99894 5.16497 1.31762 6.78543 1.21634 8.55319ZM12.6146 8.55282H9.42889V5.29348C10.368 5.26587 11.2519 5.16458 12.0713 4.98965C12.3844 6.04847 12.5777 7.27302 12.6146 8.55282ZM5.38703 8.55282H8.5727V5.29348C7.63357 5.26587 6.74968 5.16458 5.93024 4.98965C5.6172 6.04847 5.42385 7.27302 5.38703 8.55282ZM3.10381 14.0959C2.00816 12.8346 1.30841 11.2049 1.21634 9.41871H4.50329C4.53091 10.8274 4.74268 12.1256 5.07414 13.2397C4.30994 13.4699 3.64703 13.7553 3.10381 14.0959ZM5.38703 9.41871C5.41465 10.7169 5.6172 11.9507 5.93024 13.028C6.74968 12.853 7.63357 12.7425 8.5727 12.7241V9.41871H5.38703ZM12.0713 13.028C11.2519 12.853 10.368 12.7425 9.42889 12.7241V9.41871H12.6146C12.5869 10.7169 12.3844 11.9507 12.0713 13.028ZM12.928 13.2397C13.6922 13.4699 14.3643 13.7645 14.9076 14.1051C16.0032 12.8346 16.703 11.2049 16.7951 9.41871H13.4988C13.4713 10.8274 13.2596 12.1256 12.928 13.2397ZM9.42889 16.7292V13.5803C10.2944 13.5988 11.0862 13.6816 11.8044 13.829C11.2151 15.3757 10.3588 16.4713 9.42889 16.7292ZM6.19726 13.829C6.78653 15.3757 7.64279 16.4713 8.57271 16.7292V13.5803C7.70724 13.5988 6.91543 13.6816 6.19726 13.829ZM6.80495 16.4808C5.62644 16.1402 4.56761 15.5233 3.69293 14.7131C4.1717 14.4369 4.71493 14.2158 5.34101 14.0318C5.72771 15.0445 6.2249 15.8824 6.80495 16.4808ZM12.6608 14.0318C12.2741 15.0537 11.7677 15.8824 11.1969 16.49C12.3754 16.1494 13.4342 15.5325 14.3088 14.7223C13.8394 14.446 13.2869 14.2158 12.6608 14.0318Z" fill="#767676"/>
</g>
</g>
<defs>
<clipPath id="clip0_1382_931">
<rect width="18" height="18" fill="white" transform="translate(0.000976562)"/>
</clipPath>
<clipPath id="clip1_1382_931">
<rect width="18" height="18" fill="white" transform="translate(0.000976562)"/>
</clipPath>
</defs>
</svg>
